# xmcd
#
# Track frame offsets:
#	150
#	18570
#	41199
#	58008
#	70086
#	84523
#	97148
#	106671
#	121324
#	140310
#	160750
#	179007
#	192378
#	206736
#	218958
#	236413
#	250237
#	263356
#	279279
#	291766
#	306757
#
# Disc length: 4299 seconds
#
# Revision: 0
# Processed by: cddbd v1.4PL0 Copyright (c) Steve Scherf et al.
# Submitted via: dBpowerAMP V4.0
#
DISCID=3210c915
DTITLE=John Williamson - The Mallee Boy (1984 - 1988)
DYEAR=1900
DGENRE=Country
TTITLE0=Queen in the Sport of Kings
TTITLE1=I Was Only 19
TTITLE2=Dad's Flowers
TTITLE3=The Shed
TTITLE4=Go to Nashville
TTITLE5=You and my Guitar
TTITLE6=Have You Ever Been Short of a Quid
TTITLE7=Mallee Boy
TTITLE8=Galleries of Pink Galahs
TTITLE9=Raining on the Rock
TTITLE10=True Blue
TTITLE11=Cracker Night
TTITLE12=Three Rivers Hotel
TTITLE13=The Budgie Song
TTITLE14=Cootamundra Wattle
TTITLE15=Diamantina Drover
TTITLE16=I'm in the Mood
TTITLE17=Goodbye Blinky Bill
TTITLE18=Crocodile Rock
TTITLE19=Sail the Nullabor
TTITLE20=The Boomerang Cafe
EXTD=Reader's Digest Country Classics Disc 2
EXTT0=
EXTT1=
EXTT2=
EXTT3=
EXTT4=
EXTT5=
EXTT6=
EXTT7=
EXTT8=
EXTT9=
EXTT10=
EXTT11=
EXTT12=
EXTT13=
EXTT14=
EXTT15=
EXTT16=
EXTT17=
EXTT18=
EXTT19=
EXTT20=
PLAYORDER=
